# xmcd CD database file
#
# Track frame offsets:
#	183
#	15278
#	28983
#	40835
#	58070
#	77045
#	93168
#	107878
#	129435
#	145743
#	158235
#
# Disc length: 2513 seconds
#
# Revision: 0
# Processed by: cddbd v1.5.1PL0 Copyright (c) Steve Scherf et al.
# Submitted via: CDex 1.51
#
DISCID=8609cf0b
DTITLE=Status Quo - Ma Kelly's Greasy Spoon
DYEAR=1970
DGENRE=Blues
TTITLE0=Spinning Wheel Blues
TTITLE1=Daughter
TTITLE2=Everything
TTITLE3=Shy Fly
TTITLE4=(April) Spring Summer And Wednesdays
TTITLE5=Junior's Wailing
TTITLE6=Lakky Lady
TTITLE7=Need Your Love
TTITLE8=Lazy Poker Blues
TTITLE9=Is It Really Me?
TTITLE10=Gotta Go Home
EXTD=YEAR: 1970
EXTT0=
EXTT1=
EXTT2=
EXTT3=
EXTT4=
EXTT5=
EXTT6=
EXTT7=
EXTT8=
EXTT9=
EXTT10=
PLAYORDER=
